<?xml version="1.0" encoding="UTF-8"?>
<svg id="Layer_2" data-name="Layer 2" xmlns="http://www.w3.org/2000/svg" viewBox="0 0 104.42 92.39">
  <g id="Layer_1-2" data-name="Layer 1">
    <path d="M5.26,51.05c2.06,3.32,4.11,6.65,6.56,10.61,4.12-4.88,8.09-9.44,11.82-14.19,.52-.67,.18-2.5-.37-3.44-1.91-3.29-4.08-6.42-6.48-10.13-1.85,2.66-3.47,4.98-5.62,8.08-.64-1.91-1.16-2.87-1.27-3.87-1.1-9.75-2.14-19.51-3.18-29.27C6.21,4.1,9.02,.83,13.83,.98c7.6,.24,15.2,1.08,22.79,1.07,5.56,0,11.1-1.14,16.67-1.48,5.99-.36,12.04-.8,18.01-.42,5.07,.32,8.99,3.41,11.45,7.9,6.97,12.67,13.79,25.42,20.78,38.08,1.54,2.79,.98,4.66-1.04,7.02-9.38,10.99-18.55,22.17-27.78,33.29-4.3,5.18-11.52,7.15-18.05,5.25-1.7-.49-3.72,.26-5.59,.18-6.1-.26-12.2-.64-18.29-1.01-.47-.03-.94-.51-1.4-.5-7.11,.16-14.28-.09-21.32,.7-7.3,.82-10.76-1.95-9.96-9.27,.98-8.93,1.94-17.86,2.96-26.78,.14-1.25,.53-2.47,.8-3.71,.46-.08,.93-.16,1.39-.24ZM36.61,16.9c-5.72,4.84-5.69,4.82-2.14,10.24,3.46,5.28,6.67,10.75,10.37,15.86,2.05,2.83,1.84,4.78-.29,7.38-5.37,6.56-10.46,13.35-15.72,20-1.72,2.18-1.93,3.75,1.26,4.46,1.29-2.25,2.57-4.46,3.97-6.89,2.83,2.58,5.2,4.75,7.81,7.13,1.37-2.74,2.43-4.88,3.76-7.56,2.34,2.58,4.18,4.61,6.11,6.75v-29.44c.39-.16,.79-.31,1.18-.47,4.64,7.34,9.28,14.67,14.27,22.55,4.85-5.73,9.36-10.98,13.74-16.35,.58-.72,.92-2.31,.52-3.04-3.19-5.9-6.58-11.69-10.18-18-4.25,6.55-8.09,12.48-11.93,18.4l-.99-.77V17.8c-2.17,2.49-3.86,4.44-5.99,6.88-1.4-2.73-2.5-4.89-3.85-7.53-2.71,2.44-5.19,4.67-8,7.21-1.45-2.77-2.58-4.94-3.91-7.47Zm65.17,31.16c-6.67-12.26-12.95-23.81-19.65-36.14-3.16,5.06-5.96,9.32-8.48,13.74-.49,.86-.18,2.54,.35,3.54,2.89,5.42,5.9,10.78,9.03,16.06,.68,1.15,2.04,2.6,3.15,2.67,4.89,.29,9.82,.13,15.59,.13Zm-.85,3.08c-14.96-2.19-15.2-2.1-24.38,8.64-2.06,2.4-4.28,4.68-6.2,7.18-.68,.89-1.32,2.62-.91,3.39,1.84,3.42,4.07,6.63,6.36,10.22,8.56-10.03,16.65-19.5,25.13-29.43Zm-46.09,.59c-.39,.12-.79,.24-1.18,.36,.66,11.48,1.27,22.97,2.04,34.45,.06,.93,.96,2.11,1.8,2.65,4.35,2.74,14.31-.66,16-5.41,.23-.66,.14-1.68-.22-2.27-6.11-9.95-12.28-19.85-18.44-29.77Zm5.61-11.3l.85,.21c5.98-9.55,12.01-19.07,17.89-28.69,.65-1.06,1.09-2.89,.62-3.9-2.11-4.57-10.89-7.55-15.25-5.14-1.18,.65-2.36,2.43-2.44,3.76-.7,11.24-1.15,22.49-1.67,33.74Zm-17.77,8.26c-.89-.42-1.03-.53-1.18-.55q-14-1.36-22.86,9.3-6.01,7.23,.49,14.3c.17,.18,.59,.13,.89,.19,1.46-1.41,3.15-1.69,4.8-2.14,.83-.23,1.84-.55,2.33-1.17,5.14-6.48,10.18-13.03,15.53-19.92Zm-15.99-28.92q-9.72,9.87-2.87,20.45c1.14,1.75,2.51,4.47,4.03,4.66,4.91,.6,9.93,.22,15.5,.22-5.75-8.74-11.1-16.87-16.67-25.33Zm-14.6,16.53c2.87-4.8,5.15-8.39,7.14-12.13,.52-.97,.33-2.45,.13-3.63-.78-4.66-2.07-9.27-2.42-13.95-.24-3.23-1.74-3.66-4.11-3.19-3.05,.61-4.31,2.49-3.88,5.76,1.1,8.52,1.99,17.06,3.14,27.13Zm-6.62,19.69c-1.18,10.19-2.21,19.03-3.21,27.88-.44,3.85,2.14,4.94,5.16,5.11,3.41,.19,2.44-2.37,2.71-4.48,.54-4.21,1.67-8.33,2.44-12.51,.24-1.31,.59-2.96,.04-4.01-1.97-3.74-4.3-7.29-7.14-11.98ZM40.41,20.52c4.97-3.34,8.69-6.06,7.66-12.23-.52-3.17-.57-5.49-4.52-5.36-3.84,.12-6.05,1.69-5.4,5.78,.6,3.83,1.45,7.63,2.26,11.81Zm11.46,.11c4.78-4.09,8.63-6.94,7.95-12.86-.3-2.62,.1-5.2-3.45-5.2-3.11,0-6.3,.58-6.04,4.76,.26,4.15,.94,8.27,1.54,13.3Zm-18.4,51.13c-.67,4.72-1.51,9.01-1.81,13.33-.29,4.09,2.99,4.1,5.83,4.16,2.82,.06,3.57-1.38,4-4.27,.9-6.11-1.64-9.87-8.01-13.22Zm11.65,.02c-.46,5.14-1.37,9.67-.98,14.09,.12,1.4,3.57,3.14,5.73,3.58,2.8,.58,2.95-1.77,3.26-4.17,.8-6.14-2.54-9.67-8-13.5Zm-22.89,0c-.8,5-1.66,9.4-2.17,13.84-.39,3.37,2.12,3.62,4.58,3.51,2.43-.1,4.06-.62,4.62-3.8,1.05-5.93-1.71-9.56-7.03-13.56Zm6.44-51.74c6.37-3.52,8.54-7.98,6.95-13.6-.42-1.46-3.15-2.87-4.97-3.11-1.13-.15-3.69,1.98-3.65,3.02,.14,4.43,1.01,8.83,1.68,13.7Zm-11.86,68.44c.39-.39,.79-.79,1.18-1.18-2.44-4.78,3.87-10.57-2.37-15.42-3.02,4.92-3.99,9.79-2.57,14.89,.24,.85,2.45,1.15,3.75,1.7ZM21.03,20.09c.91,.01,1.83,.02,2.74,.04,.38-1.97,1.02-3.93,1.08-5.91,.06-2.27-.19-4.61-.73-6.82-.3-1.23-1.46-2.25-2.23-3.37-.94,1.09-2.75,2.23-2.68,3.25,.3,4.29,1.17,8.55,1.82,12.81Z"/>
  </g>
</svg>