<?xml version="1.0" encoding="UTF-8"?>
<svg id="Layer_2" data-name="Layer 2" xmlns="http://www.w3.org/2000/svg" viewBox="0 0 130.24 221.7">
  <g id="Layer_1-2" data-name="Layer 1">
    <g>
      <path d="M41.83,68.56c-.86-3.7-.06-6.66,3.19-9.08,1.23-.91,1.6-2.97,2.71-5.23-10.88-1.09-17.6,3.72-23.86,10.42-5.76,6.17-8.27,13.86-12.64,21.46-.57-.18-2.03-.65-3.77-1.2-1.72,2.76-3.74,5.58-5.33,8.63-2.5,4.82-.49,9.39,2.36,12.97,5.4,6.77,11.45,13.01,17.32,19.4,1.26,1.37,2.9,2.4,5.21,2.8-.95-1.46-1.91-2.92-3.7-5.65,2.32,1.13,3.31,1.62,4.31,2.1,1.65-4.95,1.06-8.55-4.98-9.28-5.14-.62-4.18-4.78-2.82-7.12,2.33-4.01-.07-6.64-1.29-9.75-.3-.76-.71-1.47-.78-1.59,2.88-4.23,5.5-8.07,8.11-11.9,0,0-.18,.18-.18,.18,1.35-.95,2.7-1.89,4.62-3.24,.12,2.69,.31,5.19,.33,7.68,.03,5.75,1.52,7.26,7.54,8.1,3.13,.43,6.19,1.29,9.79,2.07-.29,1.14-.66,2.61-.98,3.91-6.38-1.5-12.42-2.91-18.7-4.38-.83,2.34-1.47,4.15-2.34,6.61,8.84,2.91,17.46,5.76,26.08,8.6l-.45,1.32c-9.05-2.94-18.1-5.87-27.15-8.81q-.43,1.87,9.22,7.06c-.66,.44-1.28,.86-2.74,1.85,3.72-.34,6.56-.6,9.4-.86,.05,.44,.09,.88,.14,1.32-1.06,.09-2.12,.18-3.62,.31,7.15,4.74,7.77,4.77,12.32,1.72,4.39,1.58,7.82,2.96,11.35,3.92,.44,.12,1.93-1.88,2.15-3.05,.94-5.02-1.14-8.5-5.8-9.73,3.34-1,6.69-2.01,9.58-2.88-.71,4.51-1.48,10.04-2.53,15.51-.15,.77-1.58,1.38-2.52,1.89-1.54,.84-3.16,1.53-4.88,2.35-3.04-3.03-20.51-7.7-23.76-5.94-.63,.34-.63,1.87-.6,1.79,4.88,1.67,9.24,3.16,13.59,4.65-.12,.49-.25,.99-.37,1.48-3.46-1.12-6.91-2.24-10.37-3.36-.22,.49-.44,.99-.66,1.48,3.59,1.49,7.18,2.98,10.76,4.48-.12,.39-.23,.78-.35,1.17-3.2-.84-6.41-1.68-9.6-2.52-.03,.36-.1,.63-.04,.67,6.43,3.58,12.62,7.97,20.67,5.88,1.44-.37,2.97-.74,4.43-.65,9.62,.56,15.59-4.22,18.77-12.87,.56-1.52,.08-3.43,.08-5.64,.72-.25,2.48-.85,5-1.72-3.61,7.42-6.98,14.34-10.26,21.08,14.88,13.09,27.55,27.86,30.11,49.3,.61,5.1,4.05,9.89,6.34,14.75,.88,1.87,2.19,3.55,3.31,5.32-6.52-4.65-10.32-11.21-11.09-18.93-1.62-16.17-8.99-29.11-20.51-40.09-2.49-2.37-4.42-6.66-7.11-7.12-2.66-.45-5.95,2.82-8.96,4.47-.72,.4-1.45,.81-2.11,1.31-3.11,2.37-4.39,8.07-2.64,11.9,.53-.94,1.03-1.83,1.33-2.37,1.76,12.1,10.69,13.96,20.34,14.95-1.7,.38-3.41,.76-6.37,1.42,5.25,10.05,14.36,16.03,20.31,25h-3.64c-.22,.36-.45,.72-.67,1.08,1.79,1.69,3.58,3.38,5.3,5.01-.87,.82-1.86,1.75-2.53,2.38,4.01,3.88,7.6,7.52,11.37,10.94,1.7,1.54,3.62,3.16,5.73,3.81,1.56,.48,4.04-.04,5.25-1.09,1.13-.97,1.38-3.23,1.54-4.97,.13-1.38-.47-2.83-.58-3.39-2.06-1.8-3.59-3.14-5.12-4.48,5.82,1.08,8.3,3.19,7.98,9.11-.13,2.37-3.68,6.6-5.35,6.44-3.92-.36-7.77-2.62-11.4-4.56-3.28-1.75-5.98-4.84-9.39-6.01-4.82-1.64-4.36-5.77-4.65-8.84-.74-7.91-4.66-13.92-9.38-19.82-2.15-2.69-3.65-5.89-5.45-8.86-.51-.85-.87-1.94-1.61-2.48-6.96-5-13.97-9.94-21.04-14.8-1.03-.71-2.39-1.12-3.65-1.31-4.73-.7-7.79,.31-10.43,5.41-5.1,9.85-10.06,19.43-9.4,30.94,.19,3.25-.11,6.53-.28,9.79-.21,3.87-1.55,5.84-6.04,4.38-3.64-1.19-7.57-1.51-11.37-2.21,.15-.74,.3-1.49,.45-2.23,2.79,1.1,5.58,2.19,8.59,3.38,.7-2.38,1.26-4.28,1.82-6.18,.38,.05,.76,.1,1.14,.15-.12,1.45-.47,2.93-.27,4.33,.1,.71,1.15,1.71,1.85,1.79,.65,.07,1.91-.83,2.04-1.47,.55-2.74,1.43-5.65,1.01-8.32-1.86-11.88,1.69-22.24,7.9-32.11,1.74-2.77,3.02-5.95,3.89-9.11,1.45-5.29-2.76-16.68-6.77-19.41-2.7-1.84-11.72,.93-13.36,3.88-4.31,7.78-5.13,16.01-5.23,24.86-.09,7.94-2.88,15.85-4.48,23.77l-1.65-.33c.32-1.53,.59-3.06,.95-4.58,1.26-5.26,2.63-10.49,3.77-15.77,.5-2.3,.48-4.16-2.6-5.46-3.58-1.51-6.46-14.54-4.36-19.37,2.04-4.68,4.55-9.26,7.54-13.37,1.95-2.69,3.43-4.7,.87-7.58-1.74-1.96-3.54-3.86-5.22-5.87-3.12-3.75-7.03-7.17-8.96-11.47-1.32-2.94-1.19-8.1,.61-10.62,8.14-11.41,16.76-22.53,25.95-33.11,3.01-3.47,8.25-5,12.91-7.67-.23-3.14,.14-7.44-1-11.29-1.87-6.35-4.81-12.38-7.14-18.6-3.61-9.61-1.3-15.96,7.98-21.57-.61,3.08-1.34,5.85-1.68,8.66-.72,5.98,.3,11.28,6.43,14.26,.43,.21,.51,1.11,.75,1.69l.14-.09c-10.94-3.42-9.07-12.26-8.21-21.59-3.89,4.94-6.42,9.04-3.88,14.4,3,6.34,6.07,12.66,9.1,18.99,.34,.72,1.02,1.55,.88,2.19-.96,4.7,1.86,5.07,4.92,4.56,.87-1.73,1.73-3.12,2.98-3.86,.61-.36,2.77,.45,2.79,.8,.09,1.99-.25,4-.44,6-.44,.15-.88,.31-1.32,.46,5.05,5.37,10.09,10.74,15.14,16.11,.55-.53,1.1-1.07,1.65-1.6-1.56-1.41-3.36-2.64-4.62-4.27-2.74-3.55-5.3-7.24-7.65-11.05-.29-.47,1.1-1.99,1.71-3.03l-.16-.07c2.91,6.54,14.76,15.6,22.08,16.5-1.27,.67-2.13,1.11-3.69,1.93,2.52,1.42,4.5,2.54,7.05,3.98-1.52-7.53-.87-8.45,8.04-11.75-5.68-2.32-10.79-4.4-15.9-6.49,.12-.25,.24-.5,.37-.75,3.92,1.03,7.82,2.72,11.78,2.88,2.68,.11,5.46-1.93,7.65-2.79-.65,1.88-1.77,5.1-3.28,9.48,6.8-3.75,7.5,2.05,10.67,5.06,.94-2.11,1.66-3.84,2.48-5.53,.79-1.62,1.69-3.18,3.27-4.41-.68,2.79-1.35,5.57-2.43,9.99,6.38-1.23,11.8-2.28,17.21-3.32-.43,.5-.78,1.33-1.29,1.45-4.35,.98-8.75,1.75-13.09,2.77-1.69,.4-3.28,1.25-4.91,1.89,.15,.41,.3,.82,.45,1.23,1.61-.43,3.21-.87,4.74-1.28-2.75,2.71-5.32,5.26-8.72,8.62,13.91,.12,26.14-7.72,28.06-16.69-1.7,.67-3.54,1.4-5.38,2.13,1.69-1.54,3.38-3.07,6.36-5.79-.16,3.13,.35,5.31-.45,6.78-2.97,5.47-7,9.58-13.27,11.94-8.32,3.13-16.64,3.68-25.29,3.21-2.85-.15-5.74,.57-9.59,1,8.4,12.81,10.15,25.62,2.5,39.05-1.28-.21-2.94-.49-4.58-.77q-.25-7.39,6.02-6.75c3.34-7.26,2.79-14.46-1.16-21.26-.58-.99-3.67-.82-5.56-.67-3.53,.28-7.05,.82-10.53,1.49-4.31,.83-8.57,1.92-12.84,2.89-1.24,.28-2.48,.59-3.73,.88,0,0,.08,.12,.08,.12,2.72-1.68,5.43-3.35,8.99-5.55-5.61,1.06-10.33,1.95-16.32,3.07,.5-9.41,.94-17.65,1.38-25.89-.2-.1-.41-.19-.61-.29-1.18,2.52-2.37,5.04-3.55,7.56,0,0,.12,.05,.12,.05Zm47.56,.85c4.02,3.74,7.37,2.11,10.39,.47,1.41-.77,2.19-2.69,3.8-4.79-5.55,1.69-9.56,2.91-14.19,4.32Zm-18.36-6.56c-.28,.41-.55,.83-.83,1.24,4.35,5.63,8.48,7.95,12.37,6.51-4.04-2.71-7.79-5.23-11.55-7.75Zm28.85,.67c-5.44-2.72-8.89-.71-9.61,4.56,3.12-1.48,5.93-2.82,9.61-4.56Z"/>
      <path d="M45.7,24.61c7.14,3.21,11.97,1.37,20.08-7.1-.84,1.52-1.87,2.96-2.46,4.57-.56,1.54-3.82,2.5-.94,5.04,.86,.76,.28,3.15,1.48,4.88,.84-1.79,1.67-3.59,2.21-4.74,2.47,2.54,4.72,4.85,7.04,7.23-2.54-.3-5.66-1.62-7.68-.64-1.93,.94-2.62,4.32-4.06,6.49-.61,.92-1.75,1.5-2.65,2.23,0,0,.16,.07,.16,.07-.85-1.19-1.64-2.42-2.56-3.55-1.19-1.48-2.48-2.88-3.73-4.31,.36-.27,.72-.55,1.08-.82,.78,1.1,1.55,2.2,2.3,3.27,1.13-2.97,2.15-5.67,3.18-8.37-.22-.13-.44-.26-.66-.39-1.02,1.22-2.04,2.45-3.17,3.81-.66-1.27-1.17-2.23-1.59-3.03,1.4-.83,2.56-1.52,3.72-2.21-.14-.4-.28-.81-.42-1.21-4.01,1.35-8.5,5.69-11.21-1.29l-.14,.09Z"/>
      <path d="M74.88,119.01c-2.74-.59-5.27-1.14-7.8-1.68,.1-.51,.19-1.02,.29-1.54,1.11,.19,2.22,.52,3.33,.52,.96,0,1.91-.37,3.28-1.28-8.19-.61-4.86-5.39-4.13-9.38,1.5-.25,3.26-1.04,4.64-.61,1.14,.36,2.65,2.23,2.56,3.32-.27,3.23-1.24,6.41-2.17,10.66Z"/>
      <path d="M25.88,85.54c-2.22,2.01-4.44,4.02-7.1,6.44-1.45-.88-3.58-2.17-5.71-3.47,.23-.46,.45-.92,.68-1.38,1.94,.5,3.87,.99,5.81,1.49-4.9-3.9-4.89-4.07,.83-9.72,2.06,2.04,7.87,.85,5.31,6.82,0,0,.18-.18,.18-.18Z"/>
      <path d="M51.74,89.48c-3.98,1.44-7.95,2.89-12.97,4.71,1.05-8.77,2.05-17.19,3.06-25.62,0,0-.12-.05-.12-.05,.29,1.76,.92,3.53,.81,5.26-.35,5.3-1.01,10.59-1.48,15.88-.03,.29,.54,.64,1.21,1.38,.49-1.54,.85-2.68,1.21-3.81,.24,.04,.47,.07,.71,.11,.12,.81,.25,1.62,.29,1.92,2.61,.12,4.98,.23,7.36,.35l-.08-.12Z"/>
      <path d="M77.66,9.57c2.33-3.56,5.69-3.01,8.97-2.05,3.16,.93,6.18,2.36,9.33,3.31,4.3,1.3,5.28,4.68,6.33,9.41-4.73-8.39-15.29-12.69-24.78-10.81l.15,.13Z"/>
      <path d="M110.57,43.37c3.21-7.84-5-13.88-3.61-21.64,1.99,5.64,4.11,11.06,5.73,16.64,.48,1.64-.47,3.69-.76,5.56-.45-.18-.91-.37-1.36-.55Z"/>
      <path d="M79.94,17.11c1.34,1.28,2.49,2.37,3.61,3.43q-5.82,5.73-9.34,3.93c8.73,1.45,3.75-5.38,5.73-7.36Z"/>
      <path d="M77.52,9.44c3.73,1.15,7.46,2.3,10.26,3.17-5.99-.29-12.9-.63-19.8-.96-.06-.18-.12-.35-.17-.53,3.29-.51,6.58-1.03,9.87-1.54,0,0-.15-.13-.15-.13Z"/>
      <path d="M78.59,32.94c-2.47-1.03-5.33-1.59-7.26-3.24-1.26-1.08-1.16-3.75-.89-6.07-.49,6.48,5.36,5.97,8.69,8.03-.18,.43-.36,.86-.54,1.29Z"/>
    </g>
  </g>
</svg>