<?xml version="1.0" encoding="UTF-8"?>
<svg id="Layer_2" data-name="Layer 2" xmlns="http://www.w3.org/2000/svg" viewBox="0 0 454.47 280.91">
  <g id="Layer_1-2" data-name="Layer 1">
    <g>
      <path d="M264.05,233.91c-5.27,6.37-12.21,9.67-20.3,9.52-2.93-.06-6.51-1.91-8.61-4.09-7.02-7.27-10.39-16.23-9.1-26.39,.64-5.06-.98-8.23-4.42-12-7.4-8.13-13.79-17.18-20.22-25.38-4.82,.75-10.4,2.36-15.96,2.29-7.05-.09-10.07-3.93-10.59-11.19-7.38-1.63-8.65-3.27-9.15-11.08-.11-1.77-.92-3.5-1.4-5.25-1.67,1.03-3.39,1.98-4.99,3.11-.94,.66-1.67,1.6-2.5,2.41,1.02-2.13,2.04-4.27,2.96-6.19-4.22-2.71-8.38-5.38-12.54-8.05,4.73,2.19,9.46,4.37,14.07,6.5,7.9-9.78,7.68-15.7-.04-19.46,2.1,.57,4.4,1.32,5.58,2.91,4.86,6.54-.99,11.38-3.22,16.99,1.94,.54,3.8,1.06,5.7,1.59-3.86,3.72-2.02,7.86-.66,11.24,.66,1.65,4.09,2.67,6.42,3.05,4.08,.67,8.38,.45,10.45,5.06-2.77-1.2-5.43-2.35-8.47-3.67-.22,8.23,5.14,12.2,13.65,10.68,13.35-2.38,20.39-12.31,26.23-23.2,3.14-5.86,1.49-9.22-4.81-11.97,4.55-.83,3.21-4.83,3.75-7.52,.24-1.23-1.63-2.87-2.56-4.36-2.4,8.08-4.57,15.39-6.58,22.18-1.82-2.23-1.78-3.25,.61-9.04,1.26-3.05,2.77-6.09,3.41-9.29,.87-4.33-2.07-8.26-6.39-9.39-4.38-1.14-6.45,1.63-7.99,5-1.31,2.87-2.26,5.92-3.68,8.73-3.43,6.79-8.27,12.09-16.07,13.78-1.33,.29-2.8-.08-4.21-.15,7.78-1.62,11.98-3.7,16.26-10.02,2.3-3.4,3.43-7.57,5.6-11.07,2.13-3.44,4.92-6.47,7.41-9.68,.39,.28,.77,.57,1.16,.85,1.67-10.74,.74-15.07-4.44-20.32-4.13,6.31-9.6,9.86-17.52,9.29-3.79-.27-7.66,.51-12.15,.86,2.09,3.54,3.42,5.79,4.65,7.88,6.32-.2,11.51,1.27,14.42,7.17,1.93,3.91,1.71,8.11-.68,10.73,.08-1.52,.2-2.83,.21-4.14,.04-4.41-1.09-8.32-5.3-10.52-4.01-2.09-7.76-2.46-11.3,1.4-1.19,1.3-3.62,2.07-5.47,2.06-5.86-.02-7.57,3.89-8.71,8.45-.45,1.79-.46,3.7-.78,6.47-3.39-5.4,1.01-9.25,1.23-13.06-3.67-.62-7.15-1.22-10.63-1.81,.11-.56,.22-1.13,.33-1.69,1.16,.47,2.34,1.38,3.47,1.33,2.89-.13,6.42,.2,8.5-1.3,2.93-2.13,.83-8.63-3.05-11.21-4.02-2.68-7.27-2.09-9.54,2.16-2.42,4.54-4.52,9.26-6.61,13.96-.63,1.41-.76,3.05-1.12,4.58-1.82,.75-3.85,1.19-5.42,2.3-4.71,3.33-8.75,4.23-11.72,2.07,6.03,.25,10.58-2.17,14.24-6.94-5.79-6.15-8.78-12.81-4.95-20.5-6.31-5.25-9.63,.75-14.06,2.85,4.5,9.44-3.7,15.01-7.22,22.26,3.05,.76,5.73,1.42,8.49,2.1-4.07,6.32-.81,13.69,6.09,14.48,4.08,.47,8.55,.31,10.46,5.06-2.75-1.22-5.51-2.45-8.73-3.89,.11,7.09,1.96,10.21,7.48,10.37,5.07,.14,10.33-1.19,15.24-2.74,3.16-1,5.83-3.55,8.71-5.41-5.85,7.11-13.08,11.23-22.57,10.2-7.24-.79-10.26-4.08-10.59-11.27-7.95-2.21-9.03-3.76-9.54-12.51-.08-1.42-1-3.44-2.13-4.01-2.02-1.03-4.11-2.01-6.53,.69-4.99,5.55-11.08,9.49-19.05,9.54-8.72,.06-12.92-3.4-13.9-11.82-6.98-1.05-9.12-3.44-8.92-11.63,.08-3.22-.88-4.07-3.7-5.1-10.43-3.8-19.77-9.3-26.08-18.88,.44,.15,1.03,.16,1.3,.46,8.61,9.6,18.92,16.39,31.85,18.86-4.55,7.03-1.17,14.15,6.67,14.49,4.07,.18,7.77,.77,10.01,5.07-3.02-1.34-5.79-2.57-8.87-3.94-.81,6.31,1.7,9.16,6.65,10.28,10.89,2.47,18.45-2.86,24.99-10.62,3.08-4.65,6.74-9.02,9.09-14.01,2.38-5.05-.25-7.53-5.66-7.14-5.93,.43-4.85,4.35-4.53,8.12-.45,0-.89-.01-1.34-.02-.18-2.43-.36-4.86-.5-6.72-2.89-.81-5.62-1.58-8.36-2.35,.12-.43,.24-.85,.36-1.28,7.69,3.04,11.18,1.09,12.95-7.21,1.05-4.92-1.22-9.24-5.82-10.73-4.89-1.58-6.87,1.67-8.65,5.35-2.86,5.91-5.87,11.75-9.5,19.01,5.48,4.23,11.87,9.14,18.25,14.07,1.25,.97,2.49,1.95,3.73,2.93-9.79-3.31-16.71-10.52-23.51-17.67-7.21,4.26-9.23,4.67-12.3,2.64,4.37-.57,9.06-.49,11.29-5.47,2.23-2.27,5.01-4.21,6.57-6.86,3.69-6.26,3.99-14.81,12.72-17.91-6.33-1.07-11.65,.22-16.31,4.16,1.71,4.43,3.25,8.47,.66,13.31-.49-4.29-.89-7.87-1.3-11.45-.52-.06-1.04-.12-1.56-.18-.99,1.82-2.07,3.6-2.95,5.47-2.38,5.06,.77,9.23,2.34,13.64-6.11-5.22-6.16-10.46-.07-21.32-3.35-2.3-7.26-4.92-10.8-1.98-6.89,5.7-14.85,4.93-22.71,5.19-1.46,.05-2.96-1.09-4.45-1.68,7.55,1.34,14.61,.06,21.58-1.78,3.51-.93,5.07-3.2,2.61-6.6-2.23-3.08-4.47-6.2-7.08-8.94-7.9-8.25-19.5-8.47-28-.76-5.51,5.01-6.47,11.54-2.64,17.93,1.16,1.93,2.32,3.87,3.48,5.8-9.18-7.07-9.7-16.61-1.64-25.26-.41-2.07-1.45-4.08-1.04-5.75,1.93-7.87,4.26-15.64,6.56-23.88-12.05-3.41-21.64-11.08-29.8-20.7-2.35-2.77-4.51-5.77-6.35-8.9C-1.36,11.05-.43,7.57,4.85,3.82,12.1-1.33,21.56-1.38,28.47,4.34c8.05,6.67,15.73,13.79,23.42,20.58,2.3-3.74,7.85-6.34,14.58-7,7.22-.71,12.54,2.85,17.06,7.7,6.66,7.17,12.97,14.66,19.44,22,1.07,1.21,2.24,2.34,3.37,3.51,1.3,.84,2.61,1.68,3.91,2.53,4.35,4.04,8.3,8.65,13.15,11.95,5.25,3.57,11.29,6.02,17.14,8.61,.69,.3,3.39-1.58,3.4-2.47,.1-8.99-10.43-15.25-18.33-11.11-.91,.48-1.82,.95-3.74,1.96,7.82-9.14,16.06-5.77,24.22,8.54,3.87-1.15,7.71-2.3,12.14-3.62-6.34-7.99-12.39-15.62-18.44-23.26,.19-.17,.39-.34,.59-.51,6.04,7.2,12.04,14.44,18.17,21.57,1.21,1.4,2.75,2.83,4.43,3.46,7.79,2.93,12.36,8.7,14.72,16.33,1.23,3.98,.57,7.84-2.28,11.19-.92,1.08-1.43,2.5-2.13,3.77-3.44-2.75-6.76-5.67-10.35-8.21-3.97-2.8-8.12-5.5-13.19-4.48,1.45,3.73,2.8,7.25,4.19,10.75,.34,.87,.59,1.97,1.25,2.48,3.77,2.92,7.47,6.01,11.59,8.34,1.6,.9,4.65,.63,6.25-.38,1.07-.67,.91-3.56,.99-5.47,.04-1.05-.57-2.13-.89-3.2,.96,1.27,2.63,2.47,2.74,3.81,.38,4.69,3.6,4.98,7,5.07,8.33,.24,14.89-5.96,14.25-14.24-.38-4.88-1.57-9.88-3.39-14.43-3.66-9.18-10.9-11.14-19.22-5.81,1.53-4.09,7.22-6.32,12.13-3.58,3.38,1.88,6.89,5.15,8.28,8.62,2.53,6.31,3.52,13.23,5.14,19.84,1.92-2.61,3.08-5.37,1.3-9.57-1.56-3.68-2.3-8.12-1.96-12.1,.77-9.09,8.54-12.57,16.28-7.78,1.12,.69,2.13,1.56,3.43,2.52,3.95-3.31,7.38-7.75,11.87-9.63,10.51-4.39,15.27-13.65,21.11-22.12,6.78-9.84,9.73-10.49,17.01-.78,7.16,9.55,14.71,14.11,27.52,13.33,17.55-1.07,34.7,3.44,50.12,12.7,2.7,1.62,5.56,3.2,7.74,5.41,5.13,5.21,10.98,5.78,17.78,4.49,11.83-2.25,14.81,.64,11.45,12.28-4,13.84-9.12,27.36-13.88,40.97-.63,1.8-2.03,3.32-3.84,4.59,.26-.85,.37-1.78,.8-2.53,8.27-14.3,12.74-29.93,15.96-45.96,1.48-7.39-.36-9.11-7.7-8.13-10.21,1.36-20.42,2.72-30.64,4-1.58,.2-3.21,.03-4.95-1.01,6.37-.77,12.75-1.54,20.05-2.42-10.24-9.49-21.26-15.57-33.67-18.97-23.49-6.43-47.07-5.03-70.67-.35-4.28,.85-6.44,2.87-6.04,7.3,.27,3.05,.57,6.1,.86,9.16,2.91-.89,6.09-1.31,8.69-2.75,12.55-7,25.8-9.81,39.93-6.82,11.68,2.47,22.19,7.74,29.51,17.26,3.12,4.06,5.21,10.01,5.24,15.12,.05,8.45-1.94,16.91-3.07,25.35,7.94-.96,12.48,4.89,14.8,12.15,6.8,21.33,3.34,48.72-15.11,65.39-1.47,1.33-3.13,2.43-4.71,3.64,1.23-1.51,2.29-3.2,3.71-4.52,10.58-9.86,16.37-22.18,17.53-36.38,.87-10.58,1.14-21.36-4.22-31.19-3.84-7.04-8.08-8.88-15.67-6.61-7.15,2.14-14.18,4.7-21.28,7.03-15.54,5.1-29.71,2.42-41.84-8.45-6-5.37-11.03-11.81-16.51-17.77,3.92,3.62,8.31,6.84,11.67,10.93,12.01,14.6,29.79,19.81,47.54,13.52,5.79-2.05,11.69-3.78,17.41-6.01,1.64-.64,3.64-2.31,4.01-3.86,1.74-7.19,3.52-14.45,4.23-21.79,.87-8.97-3.34-16.06-10.5-21.39-19.65-14.63-40.21-15.7-61.8-4.44-3.15,1.64-6.97,1.99-10.49,2.94-.47-3.79-1.45-7.6-1.28-11.35,.23-5.26-.6-6.38-5.71-5.44-8.74,1.62-14.41,7.93-20.52,13.51-.65,.6-.21,2.4-.3,4.35,4.45-2.95,7.87-5.57,11.62-7.6,3.32-1.8,6.99-3.65,10.46,.07,3.29,3.52,2.26,7.35,.02,10.52-3.81,5.39-8.23,10.35-12.42,15.47-.95,1.16-2.04,2.21-3.87,4.17,4,.54,6.91,.46,9.45,1.39,3.68,1.34,7.1,3.41,10.63,5.17-5.99-2.16-11.82-5.16-18.45-3.92-3,8.83-8.45,10.55-15.96,5.54-1.22-.81-3.52-1.05-4.79-.44-1.28,.61-2.54,2.54-2.7,4-.38,3.61-.13,7.28-.13,11.09,1.14,.41,2.27,.68,3.24,1.22,1,.56,1.88,1.36,2.77,2.11,15.98,13.45,34.48,21.89,54.62,26.66,11.83,2.8,23.8,1.66,35.55-1.21,3.15-.77,6.98-1.44,5.55-6.85,5.29,10.24,12.17,17.89,24.17,19.53-.29,.49-.58,.98-.87,1.48-3.94-1.23-7.89-2.46-11.91-3.72,2.58,7.19,4.58,14.38,1.28,21.79-5.64,12.67-15.24,21.59-28.02,26.2-6.59,2.38-9.6,7.31-14.09,11.73,14.48,.6,26.44-5.05,38.16-11.46-3.4,2.44-6.8,4.89-10.37,7.46,27.68,12.29,44.82,35.83,62.78,59.89,5.2-24.31,2.56-47.26-5.05-69.84,9.12,1.02,30.35,20.53,47.15,43.9-.13-18.59-1.77-35.72-6.78-52.49-4.98-16.69-12.77-32.01-22.13-46.94,26.27,5.91,49.31,18.3,70.79,34.27-14.52-36.84-42.83-63.72-66.83-93.7,26.2,30.13,55.77,57.84,69.35,97.28-21.26-16.19-44.2-28.54-71.14-36.52,21.2,31.82,29.85,65.55,27.34,102.22-10.82-19.23-25.7-34.13-44.73-45.63,5.98,23.51,9.42,46.57,2.58,71.05-4.68-6.34-8.68-11.96-12.9-17.42-12.26-15.87-25.41-30.83-43.29-40.72-2.75-1.52-5.63-2.83-8.53-4.08-.75-.32-1.81-.16-2.67,.02-6.48,1.35-12.9,3.05-19.43,4.06-4.11,.64-7.45,1.75-10.24,5.1-2.05,2.46-5.02,4.16-7.57,6.19,4.98-5.46,9.74-11.13,15.01-16.29,4.12-4.03,7.09-8.65,13.89-10.62,10.63-3.08,18.36-11.39,24.03-21.34,2.49-4.38,1.42-6.85-2.1-9.55-16.4-12.57-32.52-10.32-46.8,.29-4.88,3.62-8.99,8.27-13.46,12.46,6.6-10.55,16.02-17.57,28.59-21.79-1.99-1.03-3.06-1.83-4.25-2.17-14.65-4.18-28.02-.04-37.37,12.05-3.63,4.7-7.12,9.77-9.34,15.22-4.84,11.9-7.08,24.17-2.07,36.83,5.22,13.18,15.58,16.57,27.36,8.73,2.15-1.43,4.44-2.65,6.66-3.97Zm-31.62-47.28c.24-.12,.44-.15,.52-.27,1.29-1.92,2.58-3.85,3.85-5.78,9.41-14.31,22.31-21.85,39.44-17.34,7.86,2.07,15.66,2.75,23.55,3.75,2.08,.26,4.16,1.23,6.02,2.28,4.65,2.62,9.16,5.47,13.8,8.27,.48-10.06-2.78-17.61-11.42-26.9-15.38,5.6-30.85,6.43-46.59,2.46-15.51-3.92-29.81-10.67-44.11-18.97-.13,3.8,.72,7.09,1.23,10.43,.38,2.51,.46,5.09,.38,7.64-.05,1.6-1.23,3.32-.9,4.75,2.57,10.92,6.03,21.47,14.24,29.69ZM54.36,37.16c-6.55-12.03-15.66-22.48-26.53-31.36C20.93,.18,11.77,.54,4.84,5.93,1.68,8.38,.76,11.36,2.66,14.64c7.99,13.78,18.84,24.37,34.35,29.37,1.24,.4,2.93,.41,4.08-.12,4.3-1.98,8.45-4.25,13.26-6.73Zm17.58,6.34c2.35-3.22,5.94-4.04,9.76-3.53,10.39,1.38,11.65,10.51,14.63,18.2,3.52-.87,6.79-1.68,10.61-2.62-8.77-11.61-17.03-23-28.11-32-5.84-4.74-12.31-5.26-18.67-2.28-3.07,1.44-7.6,5.67-7.12,7.51,.98,3.78,4.24,8.1,7.73,9.84,5.83,2.91,11.04,6.34,13.02,12.29,2.58,7.74,8.81,9.37,15.15,10.94,1.49,.37,5-1.8,5.32-3.28,1.27-5.91-6.29-16.44-12.08-16.83-3.34-.23-6.79,1.13-10.24,1.78Zm156.13,56.13c-.38-.24-.76-.49-1.13-.73-.27-1.97-.23-4.06-.88-5.9-2.11-5.92-4.1-11.94-6.85-17.57-2.21-4.54-8.85-7.16-12.71-5.95-3.79,1.19-6.04,5.79-5.7,11.66,.04,.66,.1,1.33,.23,1.98,1.7,8.53,5.74,15.81,11.7,22.11,2.86,3.02,6.59,5.21,10.11,2.9,2.52-1.66,3.55-5.59,5.25-8.51Zm-1.61,103.95c1.81-5.31,3.46-10.15,4.52-13.27-5.46-11.18-10.41-21.32-15.13-30.99-3.24,3.6-7.26,7.95-11.11,12.46-.55,.65-.67,2.21-.3,3.03,5.05,11.18,12.01,20.93,22.02,28.77Zm-53.48-105.63c1.38-3.56,3.45-6.48,3.47-9.41,.09-12.05-12.12-20.85-23.83-17.85-4.41,1.13-7.42,2.51-5.43,7.98,.76,2.08,.55,4.5,.81,7.11,10.24-1.15,16.65,5.53,24.98,12.18Zm-102.97-30.7c6.09-6.29,5.89-8.36-.07-13.36-3.68-3.08-7.4-6.33-10.24-10.14-3.03-4.07-6.34-3.97-10.42-2.72-8.57,2.62-13.73,10.36-11.68,18.09,13.42-8.37,22.75,.16,32.41,8.14Zm-35.96,6.91c1.95-.82,3.88-1.66,5.83-2.44,8.11-3.23,15.28-1.8,21.48,4.37,.71,.7,1.49,1.34,2.13,2.09,2.31,2.7,5,2.41,7.58,.71,3.13-2.06,2-5.04,.19-6.89-4.13-4.22-8.48-8.35-13.25-11.8-6.36-4.6-13.09-3.93-19.55,.35-4.29,2.85-6.21,8.42-4.4,13.61Zm87.54,10.14c4.03-3.1,5.14-7.96,2.59-12.76-2.1-3.95-5.53-7.26-8.71-10.53-3.69-3.8-13.46-4.39-17.57-1.29-.64,.49-1.09,1.57-1.16,2.41-.33,3.83-.5,7.67-.72,11.5,.2,.1,.4,.21,.6,.31,.42-1.27,.85-2.53,1.22-3.63,7.65,4.5,15.36,9.05,23.75,13.99Zm157.27-31.46c-5.47-5.8-10.46-11.24-15.64-16.5-2.31-2.34-4.8-2-6.71,.74-4.53,6.47-9,12.98-13.5,19.48,.19,.51,.38,1.01,.56,1.52,11.41-1.69,22.83-3.39,35.29-5.23Zm-144.88,58.48c-5.42,6.41-4.28,11.55,3.22,19.13,2.1-4.56,3.91-8.94,6.12-13.11,1.28-2.42,2.79-5.8,4.93-6.49,5.57-1.81,3.81-5.38,3.6-9.1-7.51-.32-13.56,1.95-18.34,7.38,5.11,8.19,5.69,11.54,3.22,15.01-.84-3.93-1.8-8.38-2.75-12.82Zm-11.87-25.03c1.06,2.1,2.44,3.67,2.58,5.35,.44,5.16,4.43,5.63,7.45,4.6,2.25-.78,4.34-4.09,5.1-6.69,1.26-4.25,1.39-8.84,2.03-13.52-3.69-1.63-8.31-3.67-13.79-6.08,2.75,6.53,1.67,11.89-3.37,16.35Zm-19.72-11.34c.09,8.02,.54,15.11,8.94,18.14,1,.36,1.8,1.47,2.52,2.37,2.48,3.08,5.34,3.21,8.28,.93,2.98-2.31,1.24-4.99-.22-7.07-4.81-6.86-11.42-11.4-19.52-14.37Zm-17.3,3.1c1.23-5.16,2.31-9.67,3.38-14.14-3.79-1.59-7.85-3.29-11.42-4.79-1.81,3.39-3.56,6.67-5.39,10.11,5.52,10.67,5.87,10.9,13.43,8.82Zm75.46,47.45c3.48-1.01,6.25-1.51,8.7-2.68,1.06-.51,2.35-2.82,1.99-3.63-3.41-7.72-8.64-13.73-18.02-17.56,.77,3.86,.39,7.89,2.03,9.03,5.08,3.56,6.74,7.86,5.31,14.84Zm-75.93-34.07c5.68-1.58,10.98-3.06,17-4.73-.34-2.81-.55-6.06-1.22-9.21-.2-.96-1.59-2.22-2.57-2.36-8.08-1.15-15.87,8.73-13.21,16.3Zm23.73,20.37c1.88,0,4.16-.05,6.43,0,4.33,.11,6.6-3.42,4.31-7.22-1.7-2.82-3.72-5.55-6.08-7.83-2.76-2.67-6.05-4.79-9.11-7.15-.31,.4-.61,.8-.92,1.2,2.37,3.12,6,5.95,6.78,9.42,.85,3.82-.91,8.23-1.42,11.57Zm-40.65-30.91c1,10.32,9.02,7.51,13.77,10.2,.95-3.64,1.84-7.05,2.9-11.12-5.76,.32-11.22,.62-16.67,.92Zm80.73,8.06c-3.81,2.94-6.88,6.01-10.55,7.94-3.81,2.01-3.36,4.13-2.06,6.74,5.61-1.55,10.89-3.02,16.9-4.68-1.47-3.44-2.98-6.96-4.29-10.01Zm-29.97,9.77c-.06,.66-.12,1.33-.17,1.99,2.66,1.7,1.65,7.08,7.02,6.22,3.16-.51,7.04,3.72,9.29-1.27-.61-2.51-1.17-4.83-1.93-7.97-4.59,.33-9.4,.68-14.21,1.03Zm-23.89-36.42c-5.92,3.47-8.28,9.17-5.98,14.38,6.35-4.3,7.49-7.05,5.98-14.38Zm44.61,26.59c7.71-3.1,8.68-5.69,5.29-13.82-4.37,3.56-6.3,7.88-5.29,13.82ZM59.2,40.17c4.6,5,8.81,9.59,13.03,14.17,.35-.36,.7-.72,1.05-1.08-2.68-6.2-6.55-11.16-14.08-13.09ZM209.51,104.44c-1.92-2.93-3.73-5.67-5.53-8.41-.61,.18-1.23,.36-1.84,.54,.49,3.48,.98,6.95,1.56,11.06,2.68-1.47,4.09-2.25,5.81-3.19Zm-73.04-10.29c.46,.58,.93,1.16,1.39,1.73,2.47-2.19,4.94-4.39,7.41-6.58-.39-.44-.77-.88-1.16-1.32-2.55,2.06-5.1,4.11-7.65,6.17Z"/>
      <path d="M110.25,53.66c-1.3-.84-2.61-1.68-3.91-2.53-.49-1.03-.9-2.12-1.49-3.09-4.62-7.62-3.44-12.11,4.68-15.79,7.22-3.27,14.49-3.54,20.92,1.95,3.48,2.98,6.62,6.36,9.92,9.55-.2,.17-.39,.34-.59,.51-3.64-3.1-7.12-6.43-10.96-9.26-6.12-4.5-15.26-4.12-21.36,.37-3.63,2.68-4.72,5.87-2.41,9.87,1.64,2.85,3.46,5.61,5.2,8.4Z"/>
      <path d="M251.85,202.66c3.43,1.53,6.86,3.06,9.81,4.38-2.79,7.5-5.61,15.11-8.48,22.85-5.08-1.58-10.89-3.39-16.43-5.11,3.64-8.01,7.55-16.64,11.67-25.71,1.03,1.07,2.32,2.42,3.6,3.77-1.16-.24-2.32-.49-2.93-.62-3.48,7.4-6.77,14.4-9.92,21.1,4.36,1.62,8.94,3.32,13.15,4.89,2.49-6.81,4.94-13.52,7.21-19.73-2.39-1.81-5.03-3.81-7.67-5.81Z"/>
      <path d="M275.78,121.97c-8.59-.28-11.84-2.95-11.73-10.3,.07-4.12,1.08-8.83,3.3-12.2,6.26-9.51,14.78-16.97,25.81-20.25,5.18-1.54,11.26-1.66,16.6-.65,9.35,1.77,12.28,8.98,6.11,16.17-6.3,7.34-14.24,13.32-21.66,19.67-5.59,4.79-12.19,7.38-18.44,7.56Z"/>
    </g>
  </g>
</svg>