<?xml version="1.0" encoding="UTF-8"?>
<svg id="Layer_2" data-name="Layer 2" xmlns="http://www.w3.org/2000/svg" viewBox="0 0 659.68 237.99">
  <g id="Layer_1-2" data-name="Layer 1">
    <path d="M449.11,166.26c-.76,.35-2.17,.73-2.16,1.06,.1,3.19,.44,6.38,.73,9.81-2.08,.44-4.49,.89-6.86,1.5-.53,.14-1.26,.8-1.32,1.28-.38,3.56-.62,7.14-.86,10.18-3.35,1.1-6.77,2.22-10.2,3.34,.29-4.01,.58-8.02,.87-12.02,1.54-.12,3.44-.27,5.34-.42-1.54,2.27-3.08,4.54-4.34,6.4,1.1,.91,1.99,1.65,3,2.5,1.68-2.11,3.48-4.38,4.92-6.19-1.52-1.06-2.61-1.82-3.7-2.58,4.4-2.01,4.29-5.72,3.97-10.24-2.08,1.67-3.64,2.93-5.21,4.19,9.7-15.06,17.72-30.28,20.55-47.96-22.96,2.56-36.88,14.02-41,36.58-.75-.55-1.49-1.09-2.24-1.64,3.56-7.8,7.11-15.59,10.61-23.24-10.61,6.65-18.3,15.88-20.73,28.89-1.74,9.28-3.16,18.62-4.73,27.93,.7-41.92,16.25-77.98,43.66-109.53-9.57,5.03-18.79,9.98-27.08,16.17-7.32,5.46-14.05,11.91-20.27,18.64-8.98,9.72-16.93,20.39-26,30.02-4.23,4.49-10.03,7.51-15.12,11.19-.35-.45-.7-.9-1.06-1.35,29.07-18.35,41.2-49.15,57.37-77.09-1.7,.28-2.95,.97-4.11,1.81-9.37,6.8-18.73,13.62-28.07,20.45-2.26,1.65-4.95,3.02-6.6,5.17-9.52,12.33-18.59,25-28.2,37.25-6.39,8.14-10.77,16.7-9.79,27.36,.13,1.39-.28,2.83-.44,4.25-1.22-1.26-1.52-2.38-1.41-3.47,1.13-11.58-3.6-20.86-10.8-29.51-7.43-8.92-14.25-18.34-21.41-27.48-3.02-3.86-5.68-8.26-9.44-11.23-10.13-8.02-20.74-15.42-31.2-23.02-1.21-.88-2.66-1.45-3.99-2.16,16.13,28.36,28.57,59.05,57.1,77.94-1.43-.1-2.66-.43-3.72-1.06-11.08-6.58-19.44-16.04-27.66-25.74-7.69-9.07-13.3-19.98-23.53-26.84-4.13-2.77-8-5.93-12.18-8.6-7.08-4.51-14.31-8.78-21.48-13.15-.45,.35-.9,.7-1.35,1.05,30.15,32.07,44.09,70.45,45.02,113.82-.68-1.42-1.02-2.92-1.28-4.44-2.03-11.92-3.27-24.05-6.31-35.71-2.51-9.62-9.9-16.18-18.56-21.02,4.89,7.61,9.04,15.38,8.98,25.02-3.69-23.07-18.19-34.32-41.17-37.3-.01,8.74,3.88,16.58,7.45,24.27,3.67,7.92,8.37,15.37,13.26,24.18-2.94-2.52-4.93-4.22-6.91-5.93-1.38-2.91-2.67-5.87-4.2-8.7-.28-.51-1.49-.52-2.28-.76-.22,.77-.87,1.95-.58,2.25,2.31,2.44,4.8,4.72,7.23,7.04,.15,1.89,.26,3.79,.45,5.68,.13,1.31-.05,3.35,.66,3.77,2.38,1.41,5.1,2.23,7.38,3.15,.4,2.77-.07,6.21,1.43,8.04,1.39,1.68,4.89,1.63,7.41,2.33,.66,2.74,.47,6.96,2.48,8.82,1.77,1.64,5.98,.63,8.74,.78,.78,2.29,1.01,6.06,3.01,7.92,1.67,1.54,5.43,.83,8.82,1.18,.39-.45,1.17-1.37,2.94-3.45-2.25,6.37,1.64,9.56,4.56,11.31,2.33,1.4,6.66-.54,10.19-1.01,1.45,6.98,8.66,9.15,15.83,4,1.65,2.18,3.29,4.34,5.28,6.97,2.89-1.39,5.76-2.77,7.69-3.69,2.74,1.63,5.52,4.51,8.46,4.69,2.77,.17,5.72-2.5,8.45-3.85,2.45,1.22,5.67,4.08,8.85,4.03,2.79-.04,5.52-3.35,7.64-4.79,3.29,1.27,7.23,4.29,10.26,3.55,3.36-.82,5.89-5.07,8.13-7.21,2.84,1.43,6.28,4.62,9.34,4.29,2.95-.32,5.5-4.28,8.18-6.6,2.84,.55,6.87,2.58,9.67,1.48,2.21-.86,2.9-5.59,4.03-8.07,3.46,.22,8.06,1.81,11.07,.28,2.42-1.23,2.92-6.25,4.15-9.28,3.15,0,7.98,1.37,10.66-.44,2.12-1.43,1.6-6.78,2.19-10.05h11.06c.24,1.19,.48,2.38,.72,3.58-1.7-1.06-3.4-2.12-4.95-3.07-2.33,1.96-4.62,3.89-6.91,5.82,.26,.35,.51,.69,.77,1.04,1.2-.35,2.41-.71,3.96-1.16-.71,1.31-1.16,2.16-2.1,3.89,3.68-2.61,6.46-4.57,9.23-6.53-1.03,2.12-2.05,4.23-3.21,6.63-2.65,.48-6.98,.12-9.61,2.07-2.35,1.74-2.8,6.03-3.91,8.73-3.63,.36-8.29-.31-11.53,1.52-2.46,1.39-3.11,5.96-4.52,9.03-6.4-4.23-13.88-1.04-16.31,7.38-3.62-1.47-7.56-4.57-10.88-4.01-3.47,.58-6.34,4.68-9.52,7.27-5.08-5.38-13.68-4.5-18.84,2.51-6.03-6.57-12.28-6.56-17.91,.04-4.95-7.22-12.65-7.32-17.56-.74-2.38-2.4-4.5-6.24-7.37-6.93-2.59-.62-6.01,2.2-8.75,3.36-1.64-2.23-3.08-4.49-4.86-6.43-.66-.72-2.27-1.15-3.23-.9-2.97,.76-5.83,1.91-8.69,2.89-3.89-8.19-10.9-11.33-17.6-8.16-.17-5.34-3.39-8.27-8.19-9.21-1.51-.3-6.13,1.44-5.29-3.45,1.79,.5,3.58,1,5.39,1.51,2.13-4.83-2.03-5.05-5.89-7.19,.3,2.68,.47,4.26,.65,5.84-1.07-.64-2.99-1.2-3.05-1.92-.17-2.16,1.1-4.6-2.88-4.49-1.98,.06-3.99-.83-6.32-1.37,0-2.03,0-4.75,0-7.48,1.4,5.26,3.26,6.26,8.15,3.91-3.07-1.1-3.81-6.17-8.32-3.75-2.52-4.69-6.47-3.1-9.85-2.54-.24-3.81,.39-8.18-1.1-11.64-.84-1.94-5.19-2.37-7.91-3.45,0-1.31-.14-3.52,.07-5.71,.08-.89,.91-1.7,1.4-2.54,1.14,2.96,2.28,5.9,3.42,8.85,.63-.12,1.27-.23,1.9-.35-.11-1.9,.11-3.89-.42-5.66-.53-1.77-1.77-3.44-3.96-1.39-.3-.48-.6-.95-.9-1.43-.81-5.51-4.97-10.44-9.7-11.49,2.04-2.66,4.06-5.3,6.56-8.56-4.92-8-7.86-18.49-16.82-24.38-5.54-3.64-12.12-5.87-18.47-8.06-17.54-6.07-33.63-14.99-49.42-24.51-8.49-5.12-16.58-10.91-24.87-16.36-1.31-.86-2.74-1.54-4.8-2.69-.29,7.33,3.46,12.2,6.83,16.76,12.47,16.86,25.36,33.41,38.12,50.06,1.7,2.22,3.54,4.32,5.32,6.47,.74-.23,1.49-.47,2.23-.7,.19-3.04,.86-6.15,.48-9.12-1.03-8.18-2.49-16.31-3.78-24.45,.47-.12,.94-.23,1.41-.35,.87,3.14,2.27,6.23,2.52,9.42,1.29,16.44,6.41,31.84,12.9,46.76,3.48,8,8.75,15.24,12.1,23.29,4.44,10.66,7.84,21.76,11.53,32.73,.58,1.72,.26,3.73-.71,5.72-.96-4.35-1.59-8.81-2.93-13.04-5.1-16.1-12.97-30.88-22.22-44.95-10.02-15.24-20.07-30.61-34.39-42.16-8.42-6.79-18.11-12.02-27.29-17.84-2.65-1.68-5.53-2.98-9.67-5.19,4.1,11.42,11.29,19.57,17.11,28.48-.56,.38-1.12,.76-1.68,1.14-4.97-6.99-9.64-14.21-14.98-20.91-5.43-6.81-11.15-13.48-17.43-19.5-6.28-6.02-13.4-11.16-20.78-16.42,.38,11.67,4.1,22.4,9.83,32.35,6.06,10.53,16.81,15.48,27.2,20.68-.23,.5-.45,1-.68,1.5-2.88-1.09-5.78-2.15-8.65-3.29-3.02-1.2-6.01-2.48-9.3-3.36,10.44,15.22,21.77,29.54,36.73,40.63-.34,.41-.68,.82-1.03,1.23-4.64-3.71-9.89-6.88-13.81-11.24-9.37-10.46-19.09-20.84-26.81-32.49-6.59-9.94-10.88-21.48-15.64-32.55-5.81-13.54-10.53-27.57-16.68-40.95-5.63-12.25-15.68-20.77-27.05-27.78-1.49-.92-3.53-3.48-3.16-4.45,1.3-3.39,3.86-1.27,5.75-.27,13.04,6.9,22.29,17.62,29.87,29.98,4.85,7.92,9.15,16.24,14.64,23.68,7.88,10.68,18.61,18.45,29.87,25.24,8.92,5.38,18.32,9.97,27.6,14.75,1.6,.82,3.64,.81,6.76,1.43-5.96-8.39-11.41-15.43-16.18-22.9-7.5-11.74-15.16-23.45-21.61-35.77-6.35-12.14-11.44-24.97-16.74-37.63-1.45-3.45-2.03-7.37-2.33-11.13-.13-1.61,1.48-3.35,2.3-5.03,1.13,1.37,2.84,2.57,3.3,4.14,4.41,15.17,9.43,30.04,18.68,43.1,10.31,14.55,23.42,26.24,38.07,36.15,15.27,10.34,31.42,19.17,48.66,25.87,.73,.28,1.49,.49,3.41,1.11-16.88-16.21-28.77-35.66-48.79-46.96,.33-.56,.66-1.11,.99-1.67,2.24,.89,4.78,1.37,6.69,2.74,13.74,9.88,27.35,19.94,41.01,29.93,5.84,4.27,11.69,8.53,17.54,12.79l-.67,1.1c-10.73-6.97-21.47-13.95-32.2-20.92-.36,.36-.71,.71-1.07,1.07,6.9,6.82,13.6,13.87,20.76,20.41,9.7,8.86,22.74,10.47,34.42,15,8.34,3.23,16.81,6.11,25.22,9.16,.62,.23,1.21,.74,1.83,.76,2.51,.1,5.03,.07,7.55,.08-.67-2.42-1.23-4.88-2.05-7.26-.54-1.55-1.55-2.93-2.18-4.46-4.26-10.3-13.9-14.59-22.42-20.12-.73-.47-1.79-.42-3.18-.71,.98,3.28,2.22,6,2.48,8.82,.17,1.9-.5,5-1.76,5.64-1.63,.82-4.52,.26-6.33-.72-1.98-1.07-3.35-3.28-4.17-5.81,1.38,1.23,2.6,2.81,4.2,3.58,1.47,.7,3.35,.5,5.06,.7,0-1.57,.62-3.54-.09-4.66-4.26-6.67-8.62-13.3-13.36-19.64-3.1-4.15-6.91-7.77-10.4-11.63,.34-.36,.67-.72,1.01-1.07,11.97,9.63,23.95,19.26,35.93,28.89,.54-.6,1.08-1.19,1.62-1.79-12.75-14.15-25.49-28.3-38.24-42.46,.25-.23,.5-.46,.75-.68,10.48,7.55,20.75,15.42,31.51,22.55,11.02,7.3,22.53,13.87,33.81,20.75,.34-5.95-12.77-24.12-28.14-38.02-12-10.86-26.16-18.21-41.27-23.83,21.85,2.68,39.03,14.88,56.87,28.56-3.39-16.46-9.56-30.46-19.27-42.94,.32-.27,.64-.54,.96-.81,2.26,2.61,5.06,4.93,6.67,7.9,4.24,7.81,8.88,15.59,11.71,23.95,5.81,17.16,17.11,29.24,32.1,38.51,3.36,2.08,6.62,4.32,9.33,6.11-.16-6.89-.12-14.17-.62-21.41-.16-2.32-1.47-4.71-2.72-6.79-3.82-6.29-7.87-12.44-11.18-19.1,4.64,6.86,10.05,12.81,17.11,17.14,.84,.52,1.64,1.36,2.54,1.47,2.01,.25,4.06,.13,6.1,.16-.51-1.82-.6-3.93-1.6-5.43-5.1-7.69-11.13-14.88-13.17-24.18-.75-3.42-.75-7.01,.02-10.68,.22,.33,.61,.65,.63,1,1.16,16.49,10.4,28.49,22.52,38.26,10.29,8.29,19.69,16.82,23.38,30.45,3.39-11.25,9.96-19.81,18.9-26.73,3.54-2.74,7.15-5.48,10.25-8.69,9.27-9.6,16.77-20.19,17.38-34.21,3.06,16.26-8.8,26.89-15.55,39.38,6.16,3.44,9.03,1.43,27.31-17.51-3.39,5.34-6.6,10.8-10.21,15.98-3.68,5.27-5.52,10.64-4.59,17.28,.63,4.46-.46,9.16-.79,13.94,12.14-8.35,25.8-15.43,34.07-28.67,3.82-6.12,6.08-13.18,9.36-19.66,4.24-8.37,8.71-16.63,13.27-24.84,.79-1.42,2.5-2.34,4.07-3.22-8.56,12.89-15.68,26.26-18.51,43.02,17.85-13.35,34.84-25.76,56.87-28.36-32.2,10.8-55.06,32.1-70.35,62.28,11.26-6.81,22.75-13.28,33.72-20.54,10.99-7.26,21.46-15.3,32.53-23.28-.46,1.07-.7,2.4-1.47,3.24-5.5,6.01-11.22,11.82-16.66,17.88-6.62,7.38-13.02,14.94-19.52,22.43,.5,.54,.99,1.08,1.49,1.62,11.92-9.63,23.83-19.25,35.75-28.88,.21,.06,.41,.13,.62,.19-.75,1.36-1.32,2.84-2.26,4.05-6.52,8.36-13.11,16.66-19.68,24.99-.1,.13-.22,.28-.24,.43-.38,2.46-.74,4.93-1.11,7.4,2.46-.91,4.96-1.73,7.36-2.76,.84-.36,1.46-1.23,2.45-2.11-1.82,5.36-6.85,9.3-10.01,7.55-7.68-4.24-.57-9.46-.52-14.24-9.72-.3-25.64,15.97-30.93,32.47,3.08-.21,5.84,.15,8.2-.66,16.94-5.78,33.95-11.4,50.63-17.87,10.58-4.1,18.3-12.46,25.79-20.75,2.18-2.41,4.13-5.04,5.75-8.11-10.88,7.1-21.75,14.2-32.63,21.3-.29-.45-.58-.9-.87-1.35,22.56-13.99,40.73-34.37,65.97-44.68-19.42,12.3-31.46,31.88-47.27,48.14,7.87-3.56,16.17-6.39,23.51-10.83,14.45-8.76,28.99-17.59,42.34-27.89,17.32-13.35,30.25-30.45,36.8-51.78,1.56-5.08,3.18-10.14,4.9-15.16,.62-1.8,1.6-3.48,2.46-5.31,3.81,1.32,4.28,3.9,3.43,6.59-2.89,9.14-5.15,18.61-9.22,27.22-7.06,14.96-14.75,29.68-23.2,43.89-6.49,10.94-14.55,20.94-21.9,31.37-.55,.78-1.04,1.6-2.31,3.58,2.85-.52,4.76-.52,6.36-1.21,20.01-8.59,38.7-19.46,53.63-35.47,6.35-6.81,11.09-15.27,15.79-23.43,7.83-13.58,17.21-25.59,30.87-33.66,2.16-1.28,5.33-4.93,7.57-1.01,2.17,3.8-2.51,4.21-4.61,5.54-13.56,8.63-23.74,20.25-29.94,35.01-4.5,10.7-8.4,21.67-12.07,32.69-9.79,29.4-27.98,52.83-51.15,72.76-1.67,1.44-3.86,2.27-6.16,3,14.67-11.65,26.16-26.05,37.87-42.23-7.26,2.98-13.26,5.45-19.26,7.91-.24-.5-.48-1-.73-1.5,1.26-.74,2.45-1.64,3.78-2.2,15.32-6.5,25.73-17.37,30.01-33.7,1.47-5.62,2.92-11.25,4.39-16.87-.63-.3-1.26-.61-1.9-.91-2.94,2.53-5.94,4.99-8.79,7.61-8.5,7.83-19.02,13.41-25.36,23.69-4.32,7-9.33,13.58-14.14,20.27-1.44,2-3.25,3.74-5.63,4.94,5.76-9.07,11.52-18.13,17.75-27.95-39.09,9.59-88.43,73.81-98.06,122.13-.07-1.55-.59-3.24-.13-4.62,3.74-11.3,7.2-22.73,11.69-33.73,3.36-8.22,8.64-15.63,12.16-23.8,5.36-12.45,10.42-25.04,11.62-38.85,.5-5.79,2.31-11.47,3.53-17.2,.44,.09,.88,.17,1.33,.26-1.15,8.5-2.4,16.99-3.39,25.51-.31,2.67,.1,5.41,.18,8.13,.84,.26,1.68,.52,2.52,.78,18.54-22.69,37.91-44.77,51.54-71.02-.5-.51-1-1.02-1.49-1.53-1.5,.71-3.15,1.22-4.47,2.17-20,14.39-41.09,26.9-63.69,36.73-8.21,3.57-16.86,6.12-25.14,9.56-8.2,3.41-12.37,10.79-15.8,18.35-1.21,2.66-1.15,6.5,2.32,7.01-2.05,2.41-5.49,4.75-6.15,7.71-.66,2.92,1.49,6.48,2.35,9.55-1.48,.93-3.25,2.04-5.02,3.15,.73-2.79,1.46-5.57,2.21-8.42-4.76-.31-4.95,.51-2.21,8.43Zm-113.29-34c1.14-1.7,1.49-2.59,2.13-3.12,5.26-4.3,10.26-9.03,15.95-12.67,8.01-5.12,15.22-10.06,16.27-20.86,1.15-11.71-7.19-19.28-18.3-15.3-7.73,2.77-12.92,8.6-16.47,15.83-2.11,4.3-3.79,8.8-6.08,14.2-.93-2.9-1.42-4.64-2.04-6.32-3.31-8.87-7.74-16.86-16.19-22.05-6.81-4.19-14.66-3.51-19.28,2.14-4.84,5.92-2.55,21.3,3.84,25.67,5.61,3.83,11.38,7.45,16.81,11.51,3.7,2.77,6.95,6.16,10.4,9.27-.24,.24-.47,.48-.71,.72-7.98-5.62-15.95-11.24-23.93-16.87-.27,.34-.54,.68-.8,1.02,11.01,14.72,22.03,29.43,32.17,42.98,10.38-13.79,21.53-28.62,32.68-43.44-.27-.31-.54-.62-.81-.93-8.21,5.82-16.42,11.65-25.64,18.19Zm38.08,91.49c-.37,2.23-.6,3.58-.95,5.68,3.85-1.31,7.21-2.45,10.21-3.46-1.01-1.88-1.61-2.98-2.23-4.13-2.6,.71-5.4,1.46-7.03,1.91Zm-9.77,6.52c-.12-1.69-.21-2.88-.34-4.61-3.06,.54-6.15,1.08-9.98,1.75,1.56,1.07,2.27,1.56,3.07,2.11-.88,.64-1.52,1.11-2.15,1.57,.13,.29,.26,.58,.39,.87,3.03-.57,6.05-1.13,9.01-1.69Zm23.97-11.78c.08,.57,.16,1.14,.24,1.71,3.3-.2,6.6-.41,10.59-.65-1.75-2.49-2.63-3.73-3.6-5.12-2.37,1.33-4.8,2.7-7.23,4.06Zm-51.56,14.37h9.67c-2.1-6.07-6.51-2.81-9.87-3.5,.08,1.37,.14,2.43,.2,3.5Zm74.79-28.44c-2.73,1.95-5.41,3.87-8.41,6.01,2.38,.4,3.83,.65,5.29,.89,.03,.39,.07,.77,.1,1.16,1.9-1.46,3.79-2.92,5.36-4.14-.81-1.36-1.43-2.4-2.35-3.92Zm-131.8,18.17c-2.4-.85-4.73-1.67-8.28-2.92,1.4,1.8,1.93,2.5,2.78,3.58-1.42-.11-2.39-.19-3.35-.26-.08,.3-.16,.6-.23,.9,2.47,1.01,4.93,2.01,7.41,3.02,.6-1.55,1.06-2.73,1.67-4.32Zm-23.97-11.2c-.24,.23-.49,.45-.73,.68,1.88,2.65,3.76,5.3,5.87,8.28,1.19-1.94,1.8-2.92,2.54-4.13-2.54-1.6-5.11-3.21-7.68-4.83Zm65.24,21.87h5.78c.23-1.19,.45-2.34,.7-3.68h-7.06c.2,1.26,.38,2.4,.58,3.68Zm-101.74-49.96c2.82,1.67,2.86,7.14,7.89,3.26-2.3-1.71-2.3-6.69-7.89-3.26Zm220.06-13.85c7.58-.31,6.35-4.32,4.83-8.87-1.64,3.02-3.12,5.74-4.83,8.87Zm-226.84-11.17c-.28-1.41-.44-2.35-.65-3.29-.44-1.93-.52-5.18-3.46-2.81-1.04,.84,.08,4.37,.22,6.7,1.7-.26,2.65-.41,3.89-.6Zm75.65,71.06c2.09,.6,3.9,1.13,5.11,1.48,.88-1.66,1.52-2.85,2.31-4.34-2.1-.49-4.1-.96-6.07-1.42-.47,1.49-.86,2.71-1.35,4.28Zm13.77,1.2c.1,.52,.21,1.04,.31,1.56,2.58,.37,5.16,.73,7.75,1.1,.09-1.36,.17-2.59,.31-4.67-2.93,.7-5.64,1.35-8.36,2Z"/>
  </g>
</svg>