<?xml version="1.0" encoding="UTF-8"?>
<svg id="Layer_2" data-name="Layer 2" xmlns="http://www.w3.org/2000/svg" viewBox="0 0 172.75 363.25">
  <g id="Layer_1-2" data-name="Layer 1">
    <g>
      <path d="M71.59,252.44c-4.1,9.65-3.8,19.47-.77,29.48,.72-2.86,1.45-5.72,2.38-9.38,.62,1.16,1.15,1.67,1.07,2.07-2.29,12.01,.32,23.27,4.35,34.59,3.32,9.34,5.86,19.02,7.85,28.74,1.79,8.77-.69,17.19-4.11,25.32-1.39-10.6-3.2-20.83-3.94-31.14-.66-9.14-2.92-17.63-6.91-25.78-4.71-9.62-6.9-19.87-8.38-30.44-.91-6.49-3.46-12.74-5.3-19.17,.66,.28,2.13,.91,3.77,1.62,0-4.42,.38-8.87-.1-13.23-.56-5.05-9.8-13.29-13.38-12.2-4.73,1.43-9.31,3.33-13.39,4.83-1.56-2.02-3.65-3.76-4.38-5.96-.64-1.94,.23-4.38,.5-7.34-14.7,1.96-20.95-11.49-30.83-18.49,11.66-8.87,39.64-3.39,42.24,12.1,1.86-.51,3.71-1.02,5.93-1.63,.64,4.92,8.33,8.17,1.99,14.42,3.63,2.5,6.98,4.79,10.33,7.09-2.44-11.45,1.53-24.15-7.52-33.93-1.03-1.11-1.46-2.78-2.82-5.5,2.26,1.36,3.26,1.96,4.34,2.62-.58-9.29-5.92-14.95-14.45-15.89-8.49-.94-15.25-5.82-21.08-11.37-2.44-2.33-2.36-7.3-3.43-11.07,.56-.15,1.11-.31,1.67-.46,.82,3.29,.82,7.2,2.7,9.71,1.97,2.64,5.73,3.94,8.27,5.55-2.97-5.47-5.7-11.05-8.98-16.29-1.58-2.52-4.23-4.36-6.36-6.55-1.66-1.71-3.62-3.26-4.8-5.26-1.41-2.4-1.02-4.28,2.51-4.81,1.58-.24,3.14-1.95,4.31-3.34,2.3-2.72,4.31-5.67,7.04-9.33-.72-1.05-2.04-2.98-3.79-5.53,1.75,.1,3.13,.01,4.43,.3,4.66,1.02,8.62-.43,12.76-2.57,3.6-1.86,7.73-3.2,11.75-3.63,5.67-.61,11.76-5.28,13.05-11.96-1.14,1.53-1.78,2.4-2.43,3.27-.35-.18-.7-.37-1.06-.55,.78-1.64,1.55-3.29,2.32-4.93-.3-.26-.61-.52-.91-.78-1.29,1.54-2.59,3.08-3.75,4.46-1.25-3.75-.3-5.18,4.83-6.37-1.08-4.55-12.2-3.95-5.32-12.24-5.98-2.11-11.17-3.94-16.37-5.77,.14-.44,.28-.88,.41-1.32,5.75,1.76,11.5,3.51,17.04,5.21-4.08-5.24-8.22-10.57-12.37-15.89,.39-.3,.77-.6,1.16-.9,5.21,6.27,10.41,12.54,16.27,19.6-2.18-10.43-4.56-19.57-5.92-28.85-2.61-17.79-4.67-35.67,2.06-53.15,.18-.47,.25-.99,.49-1.42,5.96-10.72,11.6-12.09,18.58-2.83,4.16,5.52,7.23,11.86,10.75,17.84,.82,1.4,1.51,2.87,2,3.81,6.43-4.28,12.48-8.45,18.67-12.39,3.85-2.46,6.6-.94,9.19,2.58,3.88,5.26,4.07,11.18,3.73,17.14-.45,7.95,.58,15.5,3.43,22.98,1.86,4.88,3.08,10.05,4.07,15.2,.39,2.06-.62,4.38-1.05,6.89,1.77,.54,4.81,.53,6.07,2.03,2.76,3.28,5.45,7.07,6.62,11.1,1.45,5,5.16,6.24,8.99,7.19,4.79,1.19,9.83,1.36,14.69,2.34,1.46,.29,2.67,1.82,3.99,2.77-1.58,.58-3.17,1.69-4.73,1.64-2.78-.09-5.52-1.01-8.31-1.36-3.81-.47-7.65-.73-12.13-1.14,1.4,4.43,11.27,4.16,4.05,10.47,3.3,6.32,9.1,7.91,15.3,8.73,3.13,.41,6.33,.45,9.4,1.1,1.14,.24,2.52,1.64,2.82,2.77,.2,.75-1.22,2.68-2.11,2.82-2.65,.42-5.53,.76-8.07,.13-3.82-.95-7.35-3.03-11.16-4-1.17-.3-3.28,1.14-4.25,2.35-2.78,3.5-4.72,7.8-7.9,10.82-3.42,3.25-6.72,1.15-9.05-2.77-7.83,4.37-14.7,.5-21.27-2.77-8.82-4.39-17.22-9.61-25.63-14.38,3.21,3.88,6.59,7.97,9.97,12.06-.52,.55-1.04,1.1-1.56,1.66-7.56-6.92-15.12-13.83-23-21.04-2.18,3.18-3.99,5.82-6.68,9.74,5.06-.3,8.54-.51,11.79-.7,.49,2.27,1.15,4.69,1.5,7.16,.21,1.45,.52,3.37-.19,4.38-4.31,6.02-2.19,12.42-1.72,18.82,.4,5.49,.08,11.03,.08,16.83,.53-.51,1.42-1.21,2.11-2.08,1.66-2.08,3.09-4.34,4.84-6.33,4.33-4.93,5.76-4.79,12.74,1.1-1.02,0-2.08,.3-2.38-.05-4.01-4.7-6.2-1.66-8.82,1.68-4.78,6.1-9.86,11.98-14.86,17.91-.62,.74-1.46,1.66-2.31,1.8-5.98,.97-5.1,5.11-4.17,9.06,1.93,8.15,4.06,16.26,6.13,24.5,1-1.2,2.32-3.19,4.02-4.77,7.74-7.15,15.44-14.36,23.51-21.12,1.76-1.47,4.98-1.2,8.29-1.89-4.28,4.45-7.54,8.01-10.99,11.36-1.51,1.46-3.27,3.12-5.19,3.63-12.58,3.33-22.01,13.46-19.85,29.46,.9,6.7,1.09,13.49,1.62,20.45,1.04-.6,1.99-1.15,2.95-1.7,.16,.15,.32,.3,.48,.45Zm-1.88-158.31c4.9-6.59,10.25-12.07,13.5-18.59,3.85-7.71,9.37-15.77,4.03-25.23-9.55,.98-23.3,32.85-17.53,43.83Zm45.59-13.84c-2.41-2.91-3.89-5.72-6.22-7.23-2.52-1.64-23.05,4.48-24.97,6.96-3.98,5.13-7.85,10.36-11.76,15.54,.2,.41,.4,.82,.6,1.23,4.77-1.88,9.78-3.32,14.26-5.74,5.96-3.23,11.48-6.99,18.72-7.12,2.74-.05,5.44-2.04,9.37-3.63Zm-40.6,24.86c4.75,3.24,8.01,6.2,11.82,7.94,13.09,5.97,26.32,11.63,39.65,17.06,1.92,.78,6.11,.36,6.71-.8,1.49-2.91-1.58-4.05-3.91-5.06-8.06-3.5-16.16-6.91-24.13-10.62-2.95-1.38-5.36-4.36-8.38-5.08-6.64-1.59-13.51-2.2-21.77-3.43Zm26.54,4.81c10.59,5.65,19.86,10.74,30.81,11.08,1.53,.05,3.11-1.27,4.66-1.95-.85-1.86-1.29-4.94-2.62-5.38-10.09-3.38-20.28-6.82-32.85-3.75ZM63.5,46.95c-8.56,12.99-1.06,25.51-.69,37.93,2.55-7.77,4.94-15.41,7.02-23.14,.46-1.73,.39-4.01-.38-5.57-1.52-3.07-3.7-5.82-5.94-9.22Zm48.04,58.13c-3.62-2.63-6.28-4.54-8.92-6.48-4.38-3.23-8.55-4.52-14.12-1.75-4.37,2.18-9.7,2.42-15.84,3.8,12.84,5.17,25.24,6.26,38.88,4.44Zm-21.56-32.3c5.33-.7,9.28-1,13.12-1.82,1.91-.41,4.71-1.42,5.15-2.79,.59-1.85-.02-5-1.37-6.3-1.23-1.19-4.13-.95-6.27-.84-1.94,.09-3.83,1.13-5.78,1.26-4.76,.32-5.85,3.75-6.31,7.43-.14,1.15,1.16,2.48,1.46,3.06Zm4.18,47.12c.59,1.2,.71,1.72,1.03,2.03,7.7,7.71,17.4,11.73,27.62,14.62,.97,.27,2.41-1.16,3.64-1.8-.72-1.09-1.21-2.78-2.21-3.19-9.73-3.91-19.54-7.61-30.08-11.66Zm11.39-23.02c.01,.68,.02,1.36,.04,2.05,4.98,3.87,10.64,4.58,16.71,3.12,2.25-.54,5.88-.32,4.92-3.89-.46-1.69-3.53-3.89-5.31-3.79-5.48,.3-10.91,1.6-16.36,2.51Zm-8.24-3.85c1.32,.88,1.69,1.22,2.13,1.41,6.81,2.92,12.69-1.76,19.07-2.45,.56-.06,1.51-1.71,1.32-2.32-.29-.9-1.32-1.96-2.23-2.21-7.4-1.99-13.25,1.79-20.28,5.57Zm-6.65-36.23c.8,.63,2.23,2.73,3.76,2.8,5.21,.26,10.53-3.22,9.31-5.64-1.2-2.38-3.93-4.85-6.44-5.48-3.39-.85-6.81,3.36-6.63,8.32Zm-13.58-13.11c-2.84-2.27-5.6-2.87-7.98,.44-2.6,3.62-1.13,8.22,3.66,11.59,1.44-4.03,2.87-7.99,4.32-12.03Zm56.23,62.61c-.23-.69-.47-1.37-.7-2.06-6.31-3.68-12.06,1.45-18.19,1.07,4.71,1.42,9.4,2.21,14.12,2.54,1.55,.11,3.18-1,4.77-1.56ZM80.53,32.9c-2.1-1.87-3.75-4.16-4.54-3.89-1.75,.59-3.06,2.47-4.55,3.82,1.44,1.1,2.78,2.84,4.35,3.08,1.16,.18,2.62-1.58,4.74-3.01Zm19.97,7.4l-.17,2.1c2.22,.56,4.47,1.63,6.63,1.47,1.11-.08,2.05-2.37,3.07-3.67-.35-.41-.7-.82-1.05-1.23-2.83,.44-5.65,.89-8.48,1.33Zm-34.47-11.12c3.13-2.28,5.78-4.22,8.42-6.16-6.04-1.4-8.44,.62-8.42,6.16Zm4.37-11.15c-1.58-1.13-2.8-2.38-3.14-2.18-1.99,1.22-3.77,2.77-5.62,4.21,.68,.73,1.73,2.2,1.98,2.07,2.1-1.05,4.05-2.39,6.78-4.11Zm28.19,18.43c3.35-.99,6.36-1.87,9.36-2.76-.26-.72-.69-2.08-.75-2.06-2.85,.8-5.67,1.71-8.48,2.66-.11,.04-.05,.6-.13,2.16Zm-2.08-7.47c5.01,2.68,7.29,1.85,9.82-3.69-3.68,1.38-6.34,2.38-9.82,3.69Zm9.85,18.34c-.33,.62-.66,1.23-.99,1.85,1.35,1.05,2.59,2.41,4.12,3,.55,.21,1.81-1.45,3.68-3.07-3.16-.82-4.98-1.3-6.81-1.77Z"/>
      <path d="M71.11,251.99c2.89-5.48,5.35-11.26,8.81-16.36,3.15-4.65,7.39-8.56,11.15-12.79,.51,.36,1.03,.72,1.54,1.08-.47,1.03-1.09,2.02-1.37,3.09-.63,2.42-1.54,4.89-1.53,7.33,.03,4.63-2.45,8.94-8.25,12.54,11.11,7.01,2.83,15.62,2.45,22.91-3.04-2.65-6.72-5.2-9.47-8.53-1.41-1.7-1.11-4.8-1.7-7.23-.14-.59-.75-1.06-1.15-1.58-.16-.15-.32-.3-.48-.45Z"/>
    </g>
  </g>
</svg>