<?xml version="1.0" encoding="UTF-8"?>
<svg id="Layer_2" data-name="Layer 2" xmlns="http://www.w3.org/2000/svg" viewBox="0 0 292.75 247.39">
  <g id="Layer_1-2" data-name="Layer 1">
    <path d="M264.65,30.9c16.15,25.37-10.37,98.95-38.26,105.72,0-2.31,.06-4.54-.01-6.76-.23-7.35-4.61-13.5-11.38-16.07-6.03-2.29-10.36-.83-13.26,5.06-6.89,13.97-7.72,28.02-.15,42.12,7.05,13.12,16.69,24.07,28.12,33.4,19.59,15.99,39.4,31.71,59.12,47.54,1.23,.99,2.44,2,3.92,3.21-32.72,13.14-139.89-33.48-159.3-69.57,2.99,.5,5.29,.92,7.6,1.26,6.41,.95,12.79,2.38,19.12-.64,3.34-1.6,6-3.98,5.06-7.6-.69-2.65-2.78-5.93-5.12-6.99-10.29-4.66-20.74-9.1-31.43-12.71-17.4-5.88-34.08-1.62-49.73,6.17-29.2,14.54-52.42,36.16-71.27,62.62-1.64,2.3-3.23,4.63-4.88,6.92-.15,.21-.58,.21-.88,.31C-10.84,188.85,42.97,96.46,79.94,91.6c-.25,.89-.42,1.61-.66,2.32-2.88,8.48-.79,14.77,6.09,18.35,6.32,3.28,14.77,1,19.56-5.28,10.49-13.77,10.98-31.42,.07-44.92-6.96-8.61-14.59-17.01-23.23-23.86C66.29,25.92,49.84,14.87,33.78,3.3c-1.18-.85-2.39-1.67-4.66-3.25,2.19,0,3.2-.13,4.16,.02,34.18,5.23,67.77,12.61,98.83,28.54,12.65,6.49,24.31,14.47,33.81,25.25,1.07,1.21,2.05,2.51,3.77,4.61-4-.47-7.02-1.25-9.98-1.06-4.08,.26-8.36,.63-12.1,2.1-4.65,1.82-4.64,6.54-.48,9.3,.41,.27,.86,.52,1.31,.72,8.78,3.86,17.42,8.08,26.38,11.47,12.55,4.74,25.17,3.7,37.53-1.19,21.26-8.42,37.33-22.72,48.29-42.79,.96-1.75,1.96-3.48,2.97-5.2,.16-.27,.48-.43,1.05-.92Zm-98.59,120.48c.83,.73,1.68,1.44,2.49,2.18,7.88,7.22,7.05,18.82-2.55,23.14-5.47,2.46-12.11,2.5-18.27,3.15-2.76,.29-5.64-.62-8.99-1.06,27.1,35.04,107.95,69.25,148.66,64.86-7.85-5.82-15.47-11.62-23.28-17.17-2.22-1.58-4.87-2.83-7.51-3.53-22.45-5.91-44.21-13.68-64.42-25.16-8.38-4.76-15.95-10.96-24.11-16.66,14.36-12.62,13.45-23.67-2.03-29.77Zm-91.5-55.75C36.93,114.73-2.89,183.23,3.63,214.93c5.88-8.35,12.3-17.37,18.57-26.47,1-1.45,1.56-3.28,1.99-5.02,4.22-16.98,11.44-32.61,20.93-47.24,6.74-10.39,15.26-19.11,24.74-26.79,17.74,12,32.54,12.1,35.81,.06-5.94,6.6-12.79,8.39-20.54,4.81-7.6-3.51-12.41-8.97-10.57-18.65Zm84.65,35.77c1.83-.21,3.49-.32,5.12-.61,11.48-2.06,14.95-10.32,8.48-20.06-6.39-9.61-21.13-15.58-32.43-13.14-10.23,2.21-14.02,10.89-8.2,19.57,6.42,9.58,16.01,13.5,27.04,14.23Zm69.99,1.78c28.53-17.15,42.68-70.36,34.99-96.48-4.61,6.38-4.44,6.4-6.15,20.32-2.58,21.03-12.57,38.47-26.33,54.26-8.15-6.47-16.2-11.91-26.64-6.85-4.05,1.97-5.97,5.8-5.58,9.6,5.56-8.76,12.35-11.43,20.25-7.94,10.49,4.64,13.26,12.24,9.47,27.09Zm-175.19,26.93c29.26-19.71,60.11-29.59,95.06-16.14-36.42-29.57-74.35-24.38-95.06,16.14Zm63.16-72.67c9.05-11.72,10.71-27.1,3.74-38.1-8.42-13.29-22.5-17.95-36.16-23.34,20.09,15.66,27.37,37.82,32.42,61.44Zm25.09-20.51c-.48-1.71-.52-2.17-.73-2.56-2.11-3.93-2.91-7.99,.21-11.65,3.07-3.6,7.01-3,11-1.45,3.12,1.21,6.34,2.19,9.51,3.27-25.36-24.85-57.08-36.07-90.59-43.51,25.03,10.24,49.43,21.75,72.91,35.55-7.82,8.29-8.49,12.89-2.31,20.34Zm-3.51,21.59c10.45-3,20.14-1.34,29.21,4.21,9.08,5.56,14.99,13.17,14.5,25.54,1.01-1.56,1.47-2.04,1.67-2.6,2.79-7.65,.09-14.01-4.93-19.65-10.4-11.69-29.26-15.27-40.45-7.5Zm58.84,70.94c6.06,20.42,20.45,33.63,38.02,44.08-14.85-12.81-29.16-26.09-38.02-44.08Z"/>
  </g>
</svg>